<svg width="60" height="60" viewBox="0 0 60 60" fill="none" xmlns="http://www.w3.org/2000/svg">
<path d="M59.0752 27.7776L59.0499 27.7524C57.8093 26.5119 55.8071 26.5119 54.5816 27.7524C53.3409 28.993 53.3409 30.995 54.5816 32.2204L54.6068 32.2456C55.8475 33.4861 57.8497 33.4861 59.0752 32.2456C60.3007 31.005 60.3158 29.003 59.0752 27.7776Z" fill="#EEEEEE"/>
<path d="M0.95005 32.2405C2.19072 33.4811 4.1929 33.4811 5.4184 32.2405C6.65907 31 6.65907 28.998 5.4184 27.7726L5.39319 27.7474C4.15252 26.5068 2.15034 26.5068 0.924834 27.7474C-0.3007 28.9879 -0.315832 30.9899 0.924834 32.2153L0.95005 32.2405Z" fill="#EEEEEE"/>
<path d="M32.219 5.41791L32.2443 5.39269C33.4849 4.15214 33.4849 2.15014 32.2443 0.924748C31.0036 -0.300673 29.0014 -0.315803 27.7759 0.924748L27.7507 0.949963C26.51 2.19051 26.51 4.19251 27.7507 5.4179C28.9914 6.64332 30.9935 6.65846 32.219 5.41791Z" fill="#EEEEEE"/>
<path d="M32.219 59.0696L32.2443 59.0444C33.4849 57.8038 33.4849 55.8018 32.2443 54.5764C31.0036 53.3359 29.0014 53.3359 27.7759 54.5764L27.7507 54.6016C26.51 55.8422 26.51 57.8442 27.7507 59.0696C28.9914 60.3101 30.9935 60.3101 32.219 59.0696Z" fill="#EEEEEE"/>
<path d="M40.2885 26.3059C38.3014 28.2928 38.3014 31.5203 40.3137 33.5374C41.3072 34.5309 42.6134 35.02 43.9147 35.02C45.2209 35.02 46.5221 34.5308 47.5157 33.5374C48.484 32.5692 49.0136 31.2933 49.0136 29.9368C49.0136 28.5802 48.4841 27.2892 47.4905 26.3109C45.5034 24.324 42.2757 24.324 40.2887 26.3109L40.2885 26.3059Z" fill="#EEEEEE"/>
<path d="M34.5947 25.3777C33.3692 24.1523 31.73 23.4664 29.9851 23.4664C28.24 23.4664 26.6161 24.1371 25.3755 25.3777C22.8336 27.9194 22.8336 32.0545 25.4007 34.6061C26.6262 35.8315 28.2654 36.5174 30.0103 36.5174C31.7553 36.5174 33.3793 35.8467 34.6199 34.6061C37.1618 32.0644 37.1618 27.9293 34.5947 25.3777Z" fill="#EEEEEE"/>
<path d="M33.5244 40.2846C31.5373 38.2977 28.3095 38.2977 26.3225 40.2846C24.3354 42.2716 24.3354 45.499 26.3477 47.5162C27.3161 48.4844 28.5921 49.014 29.9487 49.014C31.3054 49.014 32.5965 48.4844 33.5497 47.5162C35.5369 45.5292 35.5367 42.3018 33.5244 40.2846Z" fill="#EEEEEE"/>
<path d="M26.475 19.709C27.4685 20.7025 28.7747 21.1916 30.076 21.1916C31.3822 21.1916 32.6833 20.7024 33.677 19.709C35.6641 17.7221 35.6641 14.4946 33.6517 12.4775C31.7302 10.5561 28.3714 10.5561 26.4499 12.4775C24.4627 14.4644 24.4626 17.6919 26.475 19.709Z" fill="#EEEEEE"/>
<path d="M12.5041 33.6877C13.4977 34.6812 14.8038 35.1703 16.1051 35.1703C17.4113 35.1703 18.7125 34.6811 19.7061 33.6877C21.6932 31.7008 21.6932 28.4733 19.6809 26.4562C17.6938 24.4693 14.466 24.4693 12.479 26.4562C11.5107 27.4244 10.9811 28.7003 10.9811 30.0569C10.9811 31.4134 11.5106 32.7044 12.5042 33.6827L12.5041 33.6877Z" fill="#EEEEEE"/>
<path d="M44.509 11.0711H44.4586C42.1235 11.0711 40.2222 12.9673 40.2222 15.307C40.2222 17.6419 42.1186 19.543 44.4586 19.543H44.509C46.8441 19.543 48.7454 17.6468 48.7454 15.307C48.7454 12.9722 46.849 11.0711 44.509 11.0711Z" fill="#EEEEEE"/>
<path d="M44.509 48.9225C46.8441 48.9225 48.7454 47.0263 48.7454 44.6866C48.7454 42.3517 46.849 40.4506 44.509 40.4506H44.4586C42.1235 40.4506 40.2222 42.3468 40.2222 44.6866C40.2222 47.0214 42.1186 48.9225 44.4586 48.9225H44.509Z" fill="#EEEEEE"/>
<path d="M15.4904 19.5373H15.5408C17.8759 19.5373 19.7772 17.6411 19.7772 15.3014C19.7772 12.9665 17.8808 11.0654 15.5408 11.0654H15.4904C13.1553 11.0654 11.2541 12.9616 11.2541 15.3014C11.2541 17.6362 13.1504 19.5373 15.4904 19.5373Z" fill="#EEEEEE"/>
<path d="M15.5407 40.4563H15.4902C13.1552 40.4563 11.2539 42.3525 11.2539 44.6922C11.2539 47.0271 13.1503 48.9282 15.4902 48.9282H15.5407C17.8758 48.9282 19.777 47.032 19.777 44.6922C19.777 42.3574 17.8807 40.4563 15.5407 40.4563Z" fill="#EEEEEE"/>
</svg>
