<svg width="24" height="24" viewBox="0 0 24 24" fill="none" xmlns="http://www.w3.org/2000/svg">
<path fill-rule="evenodd" clip-rule="evenodd" d="M12 2.75C6.89137 2.75 2.75 6.89137 2.75 12C2.75 17.1086 6.89137 21.25 12 21.25C17.1086 21.25 21.25 17.1086 21.25 12C21.25 6.89137 17.1086 2.75 12 2.75ZM1.25 12C1.25 6.06294 6.06294 1.25 12 1.25C17.9371 1.25 22.75 6.06294 22.75 12C22.75 17.9371 17.9371 22.75 12 22.75C6.06294 22.75 1.25 17.9371 1.25 12ZM12.3003 7.77788C11.7766 7.68805 11.238 7.78647 10.7799 8.0557C10.3218 8.32493 9.97379 8.7476 9.79746 9.24885C9.66001 9.63959 9.23182 9.84492 8.84108 9.70747C8.45033 9.57001 8.245 9.14183 8.38246 8.75109C8.67634 7.91567 9.2564 7.21122 10.0199 6.7625C10.7834 6.31378 11.6811 6.14976 12.5539 6.29948C13.4268 6.44919 14.2185 6.90299 14.7888 7.58049C15.359 8.25783 15.6711 9.11507 15.67 10.0004C15.6697 11.3983 14.6312 12.3439 13.836 12.874C13.4155 13.1543 13.0004 13.3614 12.6933 13.4978C12.5387 13.5665 12.4088 13.6185 12.3159 13.654C12.2693 13.6717 12.2318 13.6853 12.2049 13.6949L12.1726 13.7062L12.1627 13.7096L12.1594 13.7107L12.1581 13.7112C12.1579 13.7112 12.1571 13.7115 11.92 13L12.1571 13.7115C11.7642 13.8425 11.3394 13.6301 11.2084 13.2371C11.0776 12.8446 11.2894 12.4203 11.6817 12.2888C11.6818 12.2888 11.6827 12.2885 11.6828 12.2885L11.6845 12.2878L11.7024 12.2816C11.7194 12.2755 11.7464 12.2657 11.7819 12.2522C11.853 12.2251 11.9575 12.1834 12.0841 12.1271C12.3395 12.0136 12.6744 11.8456 13.0039 11.6259C13.7086 11.1561 14.17 10.6018 14.17 9.99997L14.17 9.99885C14.1708 9.46749 13.9835 8.953 13.6413 8.5465C13.2991 8.13999 12.8241 7.86771 12.3003 7.77788ZM11.25 17C11.25 16.5858 11.5858 16.25 12 16.25H12.01C12.4242 16.25 12.76 16.5858 12.76 17C12.76 17.4142 12.4242 17.75 12.01 17.75H12C11.5858 17.75 11.25 17.4142 11.25 17Z" fill="white"/>
</svg>
