<svg width="56" height="56" viewBox="0 0 56 56" fill="none" xmlns="http://www.w3.org/2000/svg">
<path fill-rule="evenodd" clip-rule="evenodd" d="M24.8518 5.83601C25.8128 5.29497 26.897 5.01074 27.9998 5.01074C29.1026 5.01074 30.1868 5.29497 31.1478 5.83601C32.1088 6.37705 32.9141 7.15664 33.4861 8.09955L33.4911 8.10786L33.4911 8.10787L53.2544 41.1012L53.2688 41.1253L53.2686 41.1254C53.8289 42.0956 54.1253 43.1957 54.1285 44.3161C54.1316 45.4365 53.8413 46.5382 53.2865 47.5116C52.7317 48.485 51.9316 49.2962 50.966 49.8644C50.0003 50.4326 48.9027 50.7381 47.7824 50.7504L47.7631 50.7506V50.7505H8.23647H8.21724L8.21724 50.7504C7.09688 50.7381 5.99928 50.4326 5.03363 49.8644C4.06798 49.2962 3.26794 48.485 2.71311 47.5116C2.15827 46.5382 1.86798 45.4365 1.87112 44.3161C1.87426 43.1957 2.17071 42.0956 2.73099 41.1254L2.74501 41.1011L2.7452 41.1012L22.5085 8.10787L24.0099 9.0072L22.5136 8.09955C23.0855 7.15664 23.8908 6.37705 24.8518 5.83601ZM25.5083 9.91109L25.5061 9.91474L5.75576 42.8864C5.5051 43.3248 5.37252 43.8208 5.3711 44.3259C5.36968 44.8352 5.50163 45.336 5.75383 45.7784C6.00602 46.2209 6.36968 46.5896 6.80861 46.8479C7.24509 47.1047 7.74086 47.2434 8.24713 47.2505H47.7525C48.2587 47.2434 48.7545 47.1047 49.191 46.8479C49.6299 46.5896 49.9936 46.2209 50.2458 45.7784C50.498 45.336 50.6299 44.8352 50.6285 44.3259C50.6271 43.8207 50.4945 43.3246 50.2438 42.8862L30.4935 9.91474L30.4913 9.91108C30.2315 9.48413 29.8663 9.13109 29.4307 8.88587C28.9939 8.63994 28.5011 8.51074 27.9998 8.51074C27.4985 8.51074 27.0057 8.63994 26.5689 8.88587C26.1333 9.13109 25.7681 9.48413 25.5083 9.91109ZM27.9998 19.2504C28.9663 19.2504 29.7498 20.0339 29.7498 21.0004V30.3338C29.7498 31.3003 28.9663 32.0838 27.9998 32.0838C27.0333 32.0838 26.2498 31.3003 26.2498 30.3338V21.0004C26.2498 20.0339 27.0333 19.2504 27.9998 19.2504ZM27.9998 37.9171C27.0333 37.9171 26.2498 38.7006 26.2498 39.6671C26.2498 40.6336 27.0333 41.4171 27.9998 41.4171H28.0231C28.9896 41.4171 29.7731 40.6336 29.7731 39.6671C29.7731 38.7006 28.9896 37.9171 28.0231 37.9171H27.9998Z" fill="white"/>
</svg>
