<svg width="16" height="16" viewBox="0 0 16 16" fill="none" xmlns="http://www.w3.org/2000/svg">
<g clip-path="url(#clip0_6134_738)">
<path fill-rule="evenodd" clip-rule="evenodd" d="M3.3004 4.00748C2.38553 5.08331 1.8335 6.47727 1.8335 8.00016C1.8335 11.4059 4.59441 14.1668 8.00016 14.1668C9.52305 14.1668 10.917 13.6148 11.9928 12.6999L3.3004 4.00748ZM4.00751 3.30037L12.7 11.9928C13.6148 10.917 14.1668 9.52304 14.1668 8.00016C14.1668 4.59441 11.4059 1.8335 8.00016 1.8335C6.47729 1.8335 5.08334 2.38552 4.00751 3.30037ZM0.833496 8.00016C0.833496 4.04212 4.04212 0.833496 8.00016 0.833496C11.9582 0.833496 15.1668 4.04212 15.1668 8.00016C15.1668 11.9582 11.9582 15.1668 8.00016 15.1668C4.04212 15.1668 0.833496 11.9582 0.833496 8.00016Z" fill="#FF4E4E"/>
</g>
<defs>
<clipPath id="clip0_6134_738">
<rect width="16" height="16" fill="white"/>
</clipPath>
</defs>
</svg>
