<svg width="56" height="56" viewBox="0 0 56 56" fill="none" xmlns="http://www.w3.org/2000/svg">
<path fill-rule="evenodd" clip-rule="evenodd" d="M46.667 6.13281C45.8184 6.13281 45.0045 6.46993 44.4044 7.07L22.5805 28.8939L21.0721 34.9274L27.1056 33.419L48.9295 11.5951C49.5296 10.9951 49.8667 10.1812 49.8667 9.33256C49.8667 8.48393 49.5296 7.67007 48.9295 7.07C48.3295 6.46993 47.5156 6.13281 46.667 6.13281ZM41.9296 4.59512C43.186 3.33868 44.8901 2.63281 46.667 2.63281C48.4439 2.63281 50.148 3.33868 51.4044 4.59512C52.6609 5.85157 53.3667 7.55567 53.3667 9.33256C53.3667 11.1094 52.6609 12.8135 51.4044 14.07L29.2378 36.2367C29.0135 36.4609 28.7325 36.62 28.4248 36.697L19.0914 39.0303C18.4951 39.1794 17.8642 39.0047 17.4296 38.57C16.9949 38.1353 16.8202 37.5045 16.9692 36.9081L19.3026 27.5748C19.3795 27.2671 19.5386 26.9861 19.7629 26.7618L41.9296 4.59512ZM4.79639 9.46207C5.99975 8.25871 7.63185 7.58267 9.33366 7.58267H25.667C26.6335 7.58267 27.417 8.36618 27.417 9.33267C27.417 10.2992 26.6335 11.0827 25.667 11.0827H9.33366C8.56011 11.0827 7.81824 11.39 7.27126 11.9369C6.72428 12.4839 6.41699 13.2258 6.41699 13.9993V46.666C6.41699 47.4396 6.72428 48.1814 7.27126 48.7284C7.81824 49.2754 8.56011 49.5827 9.33366 49.5827H42.0003C42.7739 49.5827 43.5157 49.2754 44.0627 48.7284C44.6097 48.1814 44.917 47.4396 44.917 46.666V30.3327C44.917 29.3662 45.7005 28.5827 46.667 28.5827C47.6335 28.5827 48.417 29.3662 48.417 30.3327V46.666C48.417 48.3678 47.7409 49.9999 46.5376 51.2033C45.3342 52.4066 43.7021 53.0827 42.0003 53.0827H9.33366C7.63185 53.0827 5.99975 52.4066 4.79639 51.2033C3.59303 49.9999 2.91699 48.3678 2.91699 46.666V13.9993C2.91699 12.2975 3.59303 10.6654 4.79639 9.46207Z" fill="white"/>
</svg>
