<svg width="56" height="56" viewBox="0 0 56 56" fill="none" xmlns="http://www.w3.org/2000/svg">
<path fill-rule="evenodd" clip-rule="evenodd" d="M11.6667 8.75C10.8931 8.75 10.1513 9.05729 9.60427 9.60427C9.05729 10.1513 8.75 10.8931 8.75 11.6667V44.7751L15.0959 38.4292C15.4241 38.101 15.8692 37.9167 16.3333 37.9167H44.3333C45.1069 37.9167 45.8487 37.6094 46.3957 37.0624C46.9427 36.5154 47.25 35.7735 47.25 35V11.6667C47.25 10.8931 46.9427 10.1513 46.3957 9.60427C45.8487 9.05729 45.1069 8.75 44.3333 8.75H11.6667ZM7.1294 7.1294C8.33276 5.92604 9.96486 5.25 11.6667 5.25H44.3333C46.0351 5.25 47.6672 5.92604 48.8706 7.1294C50.074 8.33276 50.75 9.96486 50.75 11.6667V35C50.75 36.7018 50.074 38.3339 48.8706 39.5373C47.6672 40.7406 46.0351 41.4167 44.3333 41.4167H17.0582L8.23744 50.2374C7.73694 50.7379 6.98423 50.8877 6.3303 50.6168C5.67637 50.3459 5.25 49.7078 5.25 49V11.6667C5.25 9.96486 5.92604 8.33276 7.1294 7.1294Z" fill="white"/>
</svg>
