<svg width="56" height="56" viewBox="0 0 56 56" fill="none" xmlns="http://www.w3.org/2000/svg">
<path fill-rule="evenodd" clip-rule="evenodd" d="M19.833 8.75C15.6449 8.75 12.2497 12.1452 12.2497 16.3333C12.2497 20.5215 15.6449 23.9167 19.833 23.9167C24.0212 23.9167 27.4164 20.5215 27.4164 16.3333C27.4164 12.1452 24.0212 8.75 19.833 8.75ZM8.74971 16.3333C8.74971 10.2122 13.7119 5.25 19.833 5.25C25.9542 5.25 30.9164 10.2122 30.9164 16.3333C30.9164 22.4545 25.9542 27.4167 19.833 27.4167C13.7119 27.4167 8.74971 22.4545 8.74971 16.3333ZM46.6664 16.9167C47.6329 16.9167 48.4164 17.7002 48.4164 18.6667V23.9167H53.6664C54.6329 23.9167 55.4164 24.7002 55.4164 25.6667C55.4164 26.6332 54.6329 27.4167 53.6664 27.4167H48.4164V32.6667C48.4164 33.6332 47.6329 34.4167 46.6664 34.4167C45.6999 34.4167 44.9164 33.6332 44.9164 32.6667V27.4167H39.6664C38.6999 27.4167 37.9164 26.6332 37.9164 25.6667C37.9164 24.7002 38.6999 23.9167 39.6664 23.9167H44.9164V18.6667C44.9164 17.7002 45.6999 16.9167 46.6664 16.9167ZM3.82924 36.4962C5.90777 34.4177 8.72686 33.25 11.6663 33.25H27.9997C30.9392 33.25 33.7582 34.4177 35.8368 36.4962C37.9153 38.5748 39.083 41.3938 39.083 44.3333V49C39.083 49.9665 38.2995 50.75 37.333 50.75C36.3665 50.75 35.583 49.9665 35.583 49V44.3333C35.583 42.3221 34.7841 40.3933 33.3619 38.9711C31.9398 37.549 30.0109 36.75 27.9997 36.75H11.6663C9.65512 36.75 7.72627 37.549 6.30411 38.9711C4.88196 40.3933 4.08301 42.3221 4.08301 44.3333V49C4.08301 49.9665 3.29951 50.75 2.33301 50.75C1.36651 50.75 0.583008 49.9665 0.583008 49V44.3333C0.583008 41.3938 1.75071 38.5748 3.82924 36.4962Z" fill="white"/>
</svg>
